# xmcd
#
# Track frame offsets: 
#        150
#        21843
#        44452
#        66940
#        84057
#        108550
#        134357
#        154750
#        175101
#        192383
#
# Disc length: 2827 seconds
#
# Revision: 0
# Processed by: cddbd v1.5.2PL0 Copyright (c) Steve Scherf et al.
# Submitted via: ExactAudioCopy v1.0b3
#
DISCID=800b090a
DTITLE=Tuan Vu, Phuong Mai, Giao Linh - Thiep Hong Anh Viet Ten Em
DYEAR=1989
DGENRE=
TTITLE0=Tuan Vu - Thiep hong anh viet ten em
TTITLE1=Giao Linh - Ga chieu pho nho
TTITLE2=Phuong Mai - Thuong nho mot nguoi
TTITLE3=Tuan Vu - Con duong xua em di
TTITLE4=Giao Linh - Chuyen ngay xua
TTITLE5=Phuong Mai - Chuyen tau hoang hon
TTITLE6=Tuan Vu - Cho vua long em
TTITLE7=Giao Linh - Yeu em tu do
TTITLE8=Phuong Mai - Mua mua qua
TTITLE9=Tuan Vu - Dem buon tinh le
EXTD=
EXTT0=
EXTT1=
EXTT2=
EXTT3=
EXTT4=
EXTT5=
EXTT6=
EXTT7=
EXTT8=
EXTT9=
PLAYORDER=
